inDegrees=no
num_controls=7
num_derivatives=13
num_iterations=103
num_multipliers=7
num_parameters=0
num_slacks=7
num_states=26
objective=5.219835
objective_accelerations=0.381807
objective_balance=0.028757
objective_effort=0.178291
objective_height=4.562658
objective_ligament=0.068322
solver_duration=1154.774408
status=Solve_Succeeded
success=true
DataType=double
version=3
OpenSimVersion=4.4-2022-07-23-0e9fedc
endheader
time	/jointset/ground_pelvis/pelvis_tilt/value	/jointset/ground_pelvis/pelvis_tx/value	/jointset/ground_pelvis/pelvis_ty/value	/jointset/hip_l/hip_flexion_l/value	/jointset/hip_l/hip_adduction_l/value	/jointset/hip_l/hip_rotation_l/value	/jointset/back/lumbar_extension/value	/jointset/patellofemoral_l/patellar_flexion_l/value	/jointset/knee_l/knee_flexion_l/value	/jointset/knee_l/knee_adduction_l/value	/jointset/knee_l/knee_rotation_l/value	/jointset/ankle_l/ankle_angle_l/value	/jointset/subtalar_l/subtalar_angle_l/value	/jointset/ground_pelvis/pelvis_tilt/speed	/jointset/ground_pelvis/pelvis_tx/speed	/jointset/ground_pelvis/pelvis_ty/speed	/jointset/hip_l/hip_flexion_l/speed	/jointset/hip_l/hip_adduction_l/speed	/jointset/hip_l/hip_rotation_l/speed	/jointset/back/lumbar_extension/speed	/jointset/patellofemoral_l/patellar_flexion_l/speed	/jointset/knee_l/knee_flexion_l/speed	/jointset/knee_l/knee_adduction_l/speed	/jointset/knee_l/knee_rotation_l/speed	/jointset/ankle_l/ankle_angle_l/speed	/jointset/subtalar_l/subtalar_angle_l/speed	/forceset/tau_hip_flexion_l	/forceset/tau_hip_adduction_l	/forceset/tau_hip_rotation_l	/forceset/tau_knee_flexion_l	/forceset/tau_ankle_angle_l	/forceset/tau_subtalar_angle_l	/forceset/tau_lumbar_extension	lambda_cid13_p0	lambda_cid13_p1	lambda_cid13_p2	lambda_cid13_p3	lambda_cid13_p4	lambda_cid13_p5	lambda_cid14_p0	/jointset/ground_pelvis/pelvis_tilt/accel	/jointset/ground_pelvis/pelvis_tx/accel	/jointset/ground_pelvis/pelvis_ty/accel	/jointset/hip_l/hip_flexion_l/accel	/jointset/hip_l/hip_adduction_l/accel	/jointset/hip_l/hip_rotation_l/accel	/jointset/back/lumbar_extension/accel	/jointset/patellofemoral_l/patellar_flexion_l/accel	/jointset/knee_l/knee_flexion_l/accel	/jointset/knee_l/knee_adduction_l/accel	/jointset/knee_l/knee_rotation_l/accel	/jointset/ankle_l/ankle_angle_l/accel	/jointset/subtalar_l/subtalar_angle_l/accel	gamma_cid13_p0	gamma_cid13_p1	gamma_cid13_p2	gamma_cid13_p3	gamma_cid13_p4	gamma_cid13_p5	gamma_cid14_p0
0.5	-0.1339737387755623	0.06187537578884738	0.8179526298363645	0.6503719574371425	-0.4434080769883965	-0.2873754628971982	-0.2446506832270959	0.6903073532754765	0.6903073532755106	-0.1611609377756989	-0.1706864031755005	0.2121601352759634	0.0206566780330521	-0.2390344089051305	0.002353892938517003	-0.3075985279449298	1.264044045136919	-0.2562474018032208	0.6859766222407988	-0.160804394833987	1.661823082841657	1.661823082841624	0.01558691539883919	-0.02886902959534418	0.761554511266519	0.1298569641843893	-0.07390675513642227	0.03781094608661616	-0.0123916797968424	-0.2236903472627897	-0.009122214122673026	0.02134572721517989	0.1039505757018275	-36.3231739264419	-7.638347713659472	6.282155193008933	2.870965428125081	-532.7588177720756	-64.58160976133645	-30.94855665002942	0.1069811573012158	0.1693422168014873	-0.2863997853745546	-0.6384802743170985	0.5714389567034462	-0.1523301937980163	0.8261717388863558	-1.186760084504435	-1.186760084504433	-0.11072133760005	0.1074410263842387	-0.4638719242654493	0.485780094951336	-1.323923151169468e-07	-8.950177337922966e-07	2.86782392662783e-07	-1.581914233671297e-07	-9.504900848982115e-08	-5.404354007009924e-07	-1.242788027899532e-07
0.51	-0.1363582860584877	0.06190734550107604	0.8148629724313363	0.6629782337193344	-0.4459421716110006	-0.2805250100645569	-0.2462176093676562	0.7068638948357491	0.7068638948357747	-0.1610111060175795	-0.1709706701275711	0.2197512370358228	0.02197871707632201	-0.237851922948326	0.004034986116189735	-0.3102685138324319	1.257038797589022	-0.2505554297836393	0.6840110971780762	-0.1525770391047605	1.649265367670757	1.649265367670724	0.01438904518829014	-0.02798417435479304	0.756562000964712	0.1345260685069076	-0.07627924608664804	0.03976081990918439	-0.01231945803741333	-0.226001192981955	-0.01241205413754318	0.02152700559016726	0.1059414234935381	-37.45530786560092	-7.460921198791664	6.187701369226342	3.337499140572673	-534.6866541632423	-64.29808587755183	-30.19312097787876	0.1273589979900543	0.1667044005371077	-0.2476549898447434	-0.7574010446996721	0.5705242910425438	-0.2341982602643147	0.821586615963448	-1.323230684804214	-1.32323068480433	-0.1229881671384373	0.07909844766844862	-0.5325534465309913	0.4538568996816064	-1.44481591075341e-07	-8.339568367332765e-07	3.432998830421886e-07	-1.399924166025289e-07	-1.106146132972031e-07	-5.419286740370167e-07	-1.261636128803025e-07
0.52	-0.138730313145231	0.06195596845153841	0.8117485437675523	0.6755092867161032	-0.4484188569201224	-0.2736973194020859	-0.2477021481257211	0.7232882685540196	0.7232882685540595	-0.1608729866224438	-0.1712460703922698	0.2272892911199863	0.02334672342257234	-0.2365303696667046	0.005684540585260128	-0.3125527796960711	1.24899938805418	-0.2447655391057799	0.6814241882051706	-0.1443269183346015	1.635389514443004	1.63538951444297	0.01324444280349914	-0.02709569212311359	0.7509449761272	0.1390504247806115	-0.07865173703687971	0.04171069373177214	-0.01224723627805528	-0.228312038701101	-0.01570189415239817	0.02170828396519076	0.1079322712852242	-38.58948008753477	-7.282642177113169	6.092546151284616	3.789572531028591	-536.6562137302012	-64.03714886742127	-29.44355577129716	0.1347946222646079	0.1630344750809873	-0.2092557806019786	-0.8453126717059809	0.591022688359005	-0.2766069758346319	0.8307247470728162	-1.450387695875036	-1.450387695875097	-0.100067772448444	0.1081664246098276	-0.5887748314064762	0.4568304851884222	-1.401824742349989e-07	-7.755760233351622e-07	3.403726565789633e-07	-1.302895334217381e-07	-1.029300666331306e-07	-5.150196537471328e-07	-1.206394872319365e-07
0.53	-0.1410884689275979	0.06202093100884291	0.808613241180495	0.687954808796532	-0.4508371861833868	-0.2668983773105019	-0.2491040549024458	0.7395673105234584	0.7395673105235004	-0.1607461217200995	-0.1715123587966355	0.2347680967026275	0.02475921899737264	-0.2350759047669585	0.007303287994387232	-0.314438317523065	1.239924556803859	-0.2388896398671418	0.6782697914862301	-0.136055236326646	1.620196368877422	1.620196368877416	0.01212719965417746	-0.02615380295057311	0.7447137094237092	0.1434167729740095	-0.08095813969140586	0.04350838758100491	-0.01219928255690123	-0.2307737615076132	-0.01885596905215208	0.02188078599431944	0.1098738026613299	-39.6864674254091	-7.105731561353601	5.996088373055827	4.224247924442274	-538.7127153241784	-63.80963366656745	-28.70051731200587	0.1545094610576883	0.1605674029608402	-0.1678095336795856	-0.9656342893922341	0.587495674861927	-0.3491193558808534	0.8252700302024761	-1.587131024235947	-1.587131024231714	-0.1178461257858175	0.08848742243301136	-0.6557003478957313	0.4218290358077647	-1.319365795682336e-07	-7.09516365657185e-07	3.265503928584838e-07	-1.202860550545848e-07	-9.107065306191589e-08	-4.782289910266938e-07	-1.12986818437537e-07
0.54	-0.1434313326535319	0.0621019355460647	0.805461161865182	0.7003041693769142	-0.4531964320276219	-0.2601338318532881	-0.2504232688385807	0.7556877504297753	0.7556877504298285	-0.1606304879572235	-0.1717689708574479	0.2421815100666202	0.02621443646398447	-0.2334719583780782	0.008892936568715832	-0.3159081253471728	1.229767088045655	-0.2329488552986823	0.6745448613290237	-0.1277883502168413	1.603669101818399	1.603669101818421	0.01099821492038878	-0.02516042342374751	0.7378665323972077	0.1475948031431045	-0.08326454234586603	0.04530608143027257	-0.0121513288361106	-0.2332354843140618	-0.02201004395188254	0.02205328802351473	0.1118153340374692	-40.78641265471874	-6.927959982710953	5.899102030939502	4.647310187288099	-540.8224818543461	-63.60587550241757	-27.96357770515947	0.1646909200914366	0.157214708121262	-0.1261097800247559	-1.061840173282656	0.6039997543232637	-0.3907136634878537	0.8297655674426461	-1.717211994563103	-1.717211994563096	-0.1024160893418466	0.118464495466795	-0.7119568960085881	0.4191668803277873	-1.19324037093511e-07	-6.349609653716999e-07	3.006740453640205e-07	-1.099500032897538e-07	-7.459223780620343e-08	-4.305054473192575e-07	-1.029791657368877e-07
0.55	-0.1457575073299136	0.06219866565685801	0.8022964558066114	0.712546832886416	-0.4554959481653319	-0.2534092517782746	-0.251659857740501	0.7716364994463411	0.7716364994463601	-0.1605260656872583	-0.172015285782122	0.2495234930538406	0.02771054502372717	-0.2317387891214797	0.01044622980054282	-0.3169628820985536	1.218595841302145	-0.2269487368894748	0.6702771105938082	-0.1195422266893546	1.585875195229224	1.585875195229242	0.00988812536065819	-0.02409767462482572	0.7304343727217819	0.1515912118684517	-0.08542303109246306	0.04694734045541426	-0.01212438952203977	-0.235822792967571	-0.02496463806028187	0.02217581504845594	0.1136207160394802	-41.82179203355513	-6.735744851651381	5.795192751345964	5.053376752962053	-542.8726916416128	-63.39512291935025	-27.23257109216015	0.1812606113633723	0.1533373998612119	-0.08464110325721207	-1.170230037761905	0.5988760494802549	-0.4589920279913937	0.8201162671088944	-1.841286426212787	-1.841286426213447	-0.1150963677956606	0.1009618154577552	-0.7732262307100848	0.384584952138064	-1.075257586208761e-07	-5.71583916913489e-07	2.731039608949319e-07	-1.014677472847296e-07	-5.969651776627169e-08	-3.87656113590053e-07	-9.37358001004993e-08
0.5600000000000001	-0.1480656241771546	0.06231071885379885	0.7991233056844147	0.7246726913058953	-0.4577352914859047	-0.2467301864605028	-0.2528143693028054	0.7874011481099603	0.7874011481099948	-0.160432702508488	-0.1722508168702221	0.2567882782988247	0.02924555908742211	-0.2298603925480747	0.01195755379822657	-0.3175969380723035	1.206406070043582	-0.220914291869821	0.6654419098804757	-0.1113728822935522	1.566849031235328	1.566849031235341	0.00878639666063754	-0.02300365609176963	0.7224269839503373	0.1553759039337979	-0.08758151983912611	0.0485885994805112	-0.01209745020735215	-0.2384101016211558	-0.0279192321687012	0.02229834207331601	0.115426098041452	-42.86151568382574	-6.542285712230024	5.690533558561726	5.452651324540847	-544.9939578512525	-63.20869729813075	-26.50759718752577	0.1937363834527389	0.1488208612926077	-0.04196962449861905	-1.265545076293421	0.6108650764125472	-0.504203659111233	0.8144097411057685	-1.963663475507369	-1.963663475507368	-0.1007439173998661	0.1247184422936044	-0.827002715212339	0.3768235483275878	-9.670459695074669e-08	-5.216208906480067e-07	2.435013920562927e-07	-9.521004619147344e-08	-4.670003198527681e-08	-3.506558318347265e-07	-8.540957894122407e-08
